<svg width="181" height="191" viewBox="0 0 181 191" fill="none" xmlns="http://www.w3.org/2000/svg">
<g clip-path="url(#clip0_561_1920)">
<path d="M60.5 59.2666L53 47.7666L51 34.2666V22.7666C51 21.7666 60.5 12.7666 62 11.7666C63.2 10.9666 69.1667 8.7666 72 7.7666L84 3.7666L101.5 6.2666L109.5 7.7666L119 14.7666L127 21.2666V34.2666V47.7666L124 56.7666L111 60.2666C106.333 58.5999 96.8 55.2666 96 55.2666H81.5L68 60.2666L60.5 59.2666Z" fill="#ED2224"/>
<path fill-rule="evenodd" clip-rule="evenodd" d="M48.7949 162.96C51.4787 162.96 53.6744 165.137 53.6744 167.84C53.6744 170.542 51.4974 172.719 48.7949 172.719C46.0925 172.719 43.9155 170.542 43.9155 167.84C43.9155 165.137 46.0925 162.96 48.7949 162.96ZM131.315 162.96C133.998 162.96 136.194 165.137 136.194 167.84C136.194 170.542 134.017 172.719 131.315 172.719C128.612 172.719 126.454 170.542 126.454 167.84C126.454 165.137 128.631 162.96 131.315 162.96ZM118.328 101.985L114.631 99.7519C115.85 98.2693 116.995 96.7116 118.065 95.1164H120.805C124.202 95.1352 128.143 92.7893 129.719 89.7677C132.76 83.9874 133.83 80.9659 135.988 74.7727C137.602 70.1935 138.878 64.8448 139.516 60.0404C139.798 57.8821 136.438 56.437 136.419 56.437C136.607 53.8096 136.626 52.6085 136.476 49.9248C136.419 49.0052 135.969 48.292 135.106 48.0105L130.433 46.5279C131.277 41.0103 130.677 30.9323 129.776 25.4147C124.239 -8.32887 55.6262 -7.97229 50.0524 25.5836C49.4706 29.0743 49.4143 33.2031 49.2454 36.7314C49.0765 40.2784 49.0202 44.1069 49.7145 47.6164L47.4437 49.4556C46.9558 59.5149 48.7386 68.8047 52.2481 78.1883L55.0257 79.7835C56.7898 86.2207 60.6746 93.4086 65.6855 99.508C64.3718 100.259 62.9455 101.122 61.7819 101.966L32.1484 112.251C10.322 119.852 2.89016 138.788 1.50138 161.815L0 190.285H180.11L178.608 161.815C177.219 138.807 169.788 119.87 147.961 112.288L118.328 102.004V101.985ZM128.425 77.0998L129.532 77.2875C128.312 80.6281 127.223 83.1992 125.234 87.0277C124.277 88.8481 122.363 89.9366 120.336 89.9179L97.8339 89.749C97.6274 88.4728 96.5202 87.4969 95.2064 87.4969H84.1713C82.7074 87.4969 81.5063 88.698 81.5063 90.1618V94.4408C81.5063 95.9046 82.7074 97.1057 84.1713 97.1057H95.2064C96.4826 97.1057 97.5524 96.2049 97.8151 95.0038L108.907 95.0976C105.641 99.1889 101.719 102.623 97.2145 104.744C92.7667 105.589 88.1124 105.626 83.6646 104.838C72.3854 99.7144 64.597 86.4272 61.5379 74.8665L58.4413 73.0836C56.8086 68.2604 55.6825 63.3622 55.1946 58.3513C59.1357 63.5686 64.1278 65.314 70.2647 62.9305C86.6673 57.8633 94.0429 57.9572 110.033 62.649C116.207 64.9386 121.162 63.1182 125.046 57.8446C124.634 62.8554 123.583 67.7912 122.006 72.6332L118.928 74.4724C117.821 78.9202 116.019 83.6308 113.598 88.0411L121.612 88.0974C121.8 88.0974 122.006 88.0975 122.194 88.0787C123.639 85.1322 124.765 82.167 125.497 79.3519L128.256 77.7004L128.462 77.1374L128.425 77.0998ZM89.7076 16.2563C99.2039 16.3689 106.861 20.3288 106.805 25.1144C106.748 29.9001 98.9974 33.6723 89.52 33.5597C80.0425 33.4471 72.3667 29.4872 72.423 24.7016C72.4793 19.9159 80.2301 16.1437 89.7076 16.2563ZM67.5622 57.244C61.0687 59.7588 58.0472 53.941 55.5699 48.5735C77.903 42.7745 102.057 42.6055 124.465 48.0668C122.081 53.4718 119.135 59.3272 112.604 56.9062C98.0591 51.52 82.013 51.6514 67.5435 57.2253L67.5622 57.244ZM62.1572 43.0747C62.2886 33.8225 62.1197 19.3153 68.5194 12.1087C80.5304 6.10318 98.8848 5.97181 110.99 11.8084C117.502 18.9212 117.54 33.4283 117.802 42.6806C99.4666 39.0022 80.4366 39.1336 62.1385 43.0747H62.1572ZM117.821 16.3689C120.899 19.2403 122.982 22.8061 123.583 27.0662L124.615 44.2008C123.526 43.938 122.457 43.6753 121.368 43.4313C121.068 34.5544 121.105 24.6828 117.821 16.3689ZM61.7444 16.7818C58.5727 25.152 58.7604 35.0236 58.5915 43.9005C57.5217 44.1632 56.452 44.426 55.3635 44.7075L56.1517 27.573C56.6772 23.294 58.7041 19.7095 61.7631 16.7818H61.7444ZM37.9287 156.054L36.1083 173.92V185.049H144.001V173.92L142.181 156.054H37.9287ZM141.524 151.324H120.505V108.235L135.631 113.49L141.543 151.324H141.524ZM59.6049 151.324H38.5668L44.4785 113.49L59.6049 108.235V151.324Z" fill="black"/>
</g>
<defs>
<clipPath id="clip0_561_1920">
<rect width="180.11" height="190" fill="white" transform="translate(0 0.266602)"/>
</clipPath>
</defs>
</svg>
