<svg width="191" height="191" viewBox="0 0 191 191" fill="none" xmlns="http://www.w3.org/2000/svg">
<g clip-path="url(#clip0_561_1911)">
<path d="M183.939 74.6904H169.268C167.497 68.4903 165.129 62.7757 161.984 57.36L172.323 47.0215C174.885 44.4593 174.885 40.4254 172.323 37.8632L152.535 18.0751C150.077 15.5129 145.939 15.5129 143.474 18.0751L133.038 28.4136C127.719 25.3584 121.818 22.9979 115.715 21.3246V6.66841C115.715 3.12762 112.861 0.266602 109.216 0.266602H81.2558C77.7075 0.266602 74.854 3.12015 74.854 6.66841V21.3395C68.6538 23.1099 62.8422 25.4779 57.4264 28.6228L47.0879 18.2843C44.6302 15.7221 40.4918 15.7221 38.0342 18.2843L18.2461 38.0724C15.6839 40.53 15.6839 44.6684 18.2461 47.126L28.5846 57.5617C25.5294 62.8803 23.0718 68.7816 21.4956 74.8847H6.83193C3.28367 74.8847 0.333008 77.7382 0.333008 81.3836V109.344C0.333008 112.885 3.28367 115.746 6.83193 115.746H21.503C23.2734 121.946 25.634 127.757 28.6892 133.173L18.4478 143.512C15.8856 145.969 15.8856 150.108 18.4478 152.565L38.2359 172.353C40.6935 174.916 44.8319 174.916 47.297 172.353L57.7327 162.015C63.0513 165.063 68.8555 167.528 75.0631 169.104V183.775C75.0631 187.316 77.9167 190.274 81.4649 190.274H109.522C113.063 190.274 115.924 187.323 115.924 183.775V169.104C118.285 168.417 120.653 167.625 122.819 166.744L103.427 147.351C100.767 147.844 98.1081 148.039 95.3517 148.039C66.2111 148.039 42.5835 124.411 42.5835 95.2703C42.5835 66.1298 66.2111 42.405 95.3517 42.405C124.492 42.405 148.217 66.0327 148.217 95.2703C148.217 98.0268 148.023 100.686 147.53 103.345L166.922 122.641C167.908 120.377 168.595 118.009 169.282 115.551H183.954C187.494 115.551 190.355 112.698 190.355 109.15V81.0922C190.355 77.5514 187.502 74.6979 183.954 74.6979L183.939 74.6904Z" fill="#010101"/>
<path d="M128.01 106.065C129.743 100.836 130.259 95.0538 129.205 89.0553C126.987 76.3862 117.298 65.7265 104.928 62.2155C98.2795 60.3256 91.9076 60.5049 86.1332 62.1408C83.9221 62.7683 83.1751 65.5546 84.8036 67.1756L98.0703 80.4424C102.903 85.2755 102.903 93.1116 98.0703 97.9447C93.2372 102.778 85.4012 102.778 80.5606 97.9447L67.3013 84.6854C65.6728 83.0569 62.894 83.8039 62.2665 86.015C60.6306 91.7894 60.4438 98.1613 62.3188 104.825C65.8073 117.202 76.482 126.891 89.1511 129.08C95.1645 130.118 100.946 129.603 106.175 127.87L154.2 175.894C156.508 178.203 160.251 178.203 162.552 175.894L176.013 162.433C178.321 160.125 178.321 156.383 176.013 154.082L127.995 106.065H128.01Z" fill="#ED2224"/>
</g>
<defs>
<clipPath id="clip0_561_1911">
<rect width="190" height="190" fill="white" transform="translate(0.333008 0.266602)"/>
</clipPath>
</defs>
</svg>
