<svg width="160" height="191" viewBox="0 0 160 191" fill="none" xmlns="http://www.w3.org/2000/svg">
<g clip-path="url(#clip0_561_1929)">
<path fill-rule="evenodd" clip-rule="evenodd" d="M117.059 27.7074C133.491 27.7074 146.231 57.9631 145.501 95.2666C144.771 132.591 130.863 162.826 114.411 162.826C97.9594 162.826 83.7803 132.57 84.5101 95.2666C85.2399 57.9422 100.628 27.7074 117.059 27.7074ZM19.5364 28.2078C20.2454 27.3112 20.9335 26.3729 21.705 25.4971C25.2915 21.4936 30.1499 15.4258 34.3828 12.3606C34.4245 12.3606 34.4662 12.3606 34.5287 12.3606C39.0952 11.7976 42.1813 12.4857 43.62 14.5083C45.1213 16.6352 45.7052 20.1799 45.2256 25.2469C45.2256 25.3303 45.2048 25.3928 45.2256 25.4554C41.9519 30.7517 39.3871 36.048 36.9058 41.3235C36.7598 40.8647 36.6556 40.406 36.5722 39.9264C35.6756 35.2765 33.653 32.1488 30.8171 30.1887C28.3149 28.458 24.8953 27.7908 20.5164 28.1244C20.1828 28.1453 19.87 28.187 19.5573 28.2287L19.5364 28.2078ZM9.59018 47.7249C10.2366 47.7041 10.883 47.7041 11.5502 47.7041C15.4286 47.7666 18.8066 48.559 21.6216 50.1854C25.0621 52.1872 27.8145 55.44 29.9831 60.1942C30.2124 60.6738 30.4418 61.1117 30.6712 61.5704C31.9014 56.2949 33.4653 51.0195 35.2794 45.7023C35.2585 45.6398 35.2585 45.5564 35.2377 45.4938C33.9449 40.3643 32.0474 36.7153 29.1073 34.5259C25.7919 32.0654 21.142 31.5649 17.1176 31.982C14.4069 36.5485 11.9047 41.7405 9.65274 47.5998L9.59018 47.7458V47.7249ZM3.81428 67.388C4.98197 61.904 6.46244 56.5869 8.19312 51.5825C12.7805 51.6033 16.6589 51.9995 20.6832 54.5434C24.3948 56.8996 27.4183 60.6112 29.6286 65.7616C29.6494 65.8241 29.6703 65.9075 29.712 65.991C28.8362 71.3081 28.1273 76.5836 27.5434 81.9007C27.2515 81.4212 26.9804 80.9416 26.7094 80.462C23.8735 75.6661 20.433 72.309 16.4087 70.1821C13.2392 68.514 9.73614 67.6382 5.87859 67.4297C5.37815 67.4089 4.0228 67.388 3.83513 67.388H3.81428ZM1.04102 87.0928C1.22868 87.0928 2.73 87.1554 3.39725 87.2179C7.35906 87.5515 11.0706 88.5316 14.4486 90.2623C18.7649 92.4725 22.6224 95.9339 26.2298 100.813C26.5843 101.293 26.9387 101.751 27.2932 102.231C27.0847 96.9556 27.1055 91.6385 27.3141 86.3213C27.2724 86.217 27.2307 86.1545 27.189 86.0919C24.0821 80.8582 20.5581 77.0215 16.4087 74.6027C12.4677 72.309 7.58843 71.183 3.02192 71.2456C2.06275 76.3959 1.3955 81.7131 0.999314 87.0928H1.04102ZM0.978463 106.798C0.623985 101.48 0.56143 96.1841 0.81165 90.9295C6.33733 91.2423 10.0489 91.8678 15.0325 94.6828C19.5573 97.2267 23.7276 101.105 27.3766 106.443C27.4183 106.506 27.46 106.589 27.5017 106.672C28.023 111.99 28.7111 117.328 29.4409 122.624C29.0239 122.103 28.6486 121.602 28.2315 121.123C24.2072 116.202 19.7658 112.678 15.0742 110.322C11.4877 108.507 7.67183 107.423 3.71003 106.985C3.31384 106.944 1.37464 106.798 0.978463 106.777V106.798ZM3.64747 126.565C4.16876 126.586 5.962 126.773 6.12881 126.794C10.3825 127.295 14.5529 128.483 18.5564 130.485C23.4565 132.925 28.169 136.553 33.1108 141.578C33.6113 142.079 34.0908 142.558 34.5913 143.059C32.8397 137.721 31.5678 132.403 30.3584 127.086C30.3167 127.024 30.2541 126.94 30.1916 126.878C25.7502 121.456 21.2671 117.432 16.4087 114.805C11.6545 112.219 6.69181 110.968 1.31209 110.676C1.5206 112.74 1.74997 114.805 2.06275 116.848C2.56319 120.226 3.06363 123.458 3.66832 126.565H3.64747ZM9.46507 146.395C8.5059 144.039 7.60928 141.578 6.75436 138.992C5.85774 136.303 5.10708 133.446 4.43983 130.443C17.8266 131.757 26.7719 137.658 35.8841 147.312C35.9466 147.375 36.0092 147.437 36.0717 147.521C38.1569 152.901 40.5965 158.239 43.2238 163.618C42.64 163.118 42.0353 162.617 41.4515 162.096C35.759 157.008 30.2541 153.297 24.8536 150.69C20.4747 148.584 16.1376 147.25 11.8005 146.645C11.1958 146.562 10.9247 146.499 9.48592 146.395H9.46507ZM21.1003 166.579C26.1464 167.351 30.9631 168.935 35.613 171.021C41.7225 173.773 48.6661 177.672 56.7774 182.823C57.6949 183.406 58.7166 183.844 59.7383 184.386C54.1084 178.923 49.521 173.502 45.9971 168.122C45.9137 168.039 45.8303 167.935 45.7469 167.872C39.0952 162.305 33.2776 158.093 27.606 155.194C21.8718 152.275 17.4512 151.086 11.1749 150.315C13.9065 156.278 17.0134 161.45 20.5581 165.891C20.7458 166.12 20.9335 166.35 21.1003 166.579ZM61.3022 186.597C59.509 186.305 57.674 185.992 55.8391 185.658C42.8902 183.24 33.2776 179.194 24.8953 170.77C26.1255 171 33.09 172.689 38.991 175.253C44.892 177.818 51.5019 181.342 60.1345 185.971L61.3231 186.597H61.3022ZM78.0878 188.995C78.4422 189.057 78.7967 188.807 78.192 188.515L78.0044 188.411C26.9596 158.781 31.1716 36.0063 77.775 1.41348C77.9835 1.24666 78.2754 0.787928 77.6082 0.787928C75.3354 0.913038 73.0625 1.07985 70.8105 1.28837C70.5186 1.30922 70.2476 1.39263 70.039 1.53859C21.6424 35.3808 17.6389 153.13 68.3501 187.076L69.0799 187.556C69.622 187.91 69.5803 187.89 70.2058 187.994C72.9166 188.369 75.5439 188.724 78.0878 189.016V188.995ZM96.8959 8.71154C93.7682 8.98262 90.3902 9.56646 86.762 10.5673C80.6317 12.2563 74.1051 15.4466 67.1615 19.9923C66.5151 20.4093 65.9521 20.8889 65.3474 21.3476C81.2155 -0.275504 91.7247 -1.94363 116.83 1.87221C117.414 1.95562 117.685 2.3935 117.122 2.47691C115.683 2.64372 114.265 2.93565 112.868 3.35268C109.845 4.27015 106.884 5.81317 104.069 7.87748C103.36 8.35707 102.588 8.60729 101.734 8.56558C100.107 8.54473 98.5641 8.56558 96.8959 8.69069V8.71154ZM84.3224 28.5206C84.9479 28.4997 85.2607 28.4789 86.4284 28.5206C87.2416 28.4997 87.8255 28.1661 88.2008 27.5406C90.8907 22.4945 93.8933 18.0531 97.1044 14.3832C98.0636 13.2572 97.6883 12.4231 96.3955 12.5065C96.187 12.5065 95.9785 12.5065 95.7491 12.5065C94.3103 12.5274 92.8716 12.6525 91.4328 12.8193C88.4719 13.1946 85.3858 13.9036 82.1538 14.967C75.8566 17.0522 69.2675 20.597 62.8452 25.5805C62.741 25.6639 62.6784 25.7056 62.6159 25.7682C59.509 31.1062 57.1736 36.4442 54.9008 41.7405C55.4012 41.3026 55.9225 40.8439 56.4646 40.3852C61.8026 35.8395 66.9738 32.6492 72.2702 30.8143C76.4196 29.3755 80.4649 28.6457 84.3433 28.4997L84.3224 28.5206ZM74.7724 48.5798C75.94 48.4547 77.212 48.3713 78.4422 48.3505C79.3806 48.3296 79.9644 47.9334 80.1938 47.1202C81.6325 42.4286 83.2798 38.0289 85.0939 33.9212C85.5527 32.8577 85.1565 32.4198 84.2181 32.4407C83.4675 32.4407 82.7168 32.4407 81.9662 32.4824C77.8167 32.6909 73.6672 33.5875 69.5595 35.2557C64.2006 37.4242 58.7375 40.9899 53.5246 45.9942C53.4411 46.0777 53.3994 46.1402 53.3577 46.1819C51.7522 51.5199 50.2508 56.8371 49.104 62.1334C49.521 61.7164 49.9172 61.2368 50.3551 60.778C54.8173 56.1698 59.6341 53.0629 64.5551 51.1029C67.933 49.7684 71.3318 48.9343 74.7932 48.5798H74.7724ZM72.5412 68.3263C68.2667 68.7017 64.1589 69.6608 60.2179 71.3707C55.5263 73.3933 51.21 76.6044 47.3733 81.2335C46.998 81.6922 46.6227 82.151 46.2473 82.6097C46.7478 77.2717 47.3942 71.9337 48.2491 66.6165C48.2908 66.5539 48.3325 66.4914 48.3951 66.4288C52.7739 61.3827 57.5489 57.7754 62.595 55.5443C67.5368 53.3549 71.874 52.5625 77.0243 52.3331C78.0878 52.2706 78.5674 52.7919 78.2546 54.0638C77.1911 58.255 76.2945 62.6339 75.5647 67.1587C75.5022 67.8259 75.1268 68.2012 74.397 68.2429C73.7923 68.2638 73.1251 68.3055 72.5204 68.368L72.5412 68.3263ZM66.4734 1.72625C57.3821 2.83139 48.5827 4.81229 41.2638 8.29451C44.329 8.1277 46.289 8.7324 47.4567 10.1503C48.958 12.0061 49.1249 15.0504 48.2282 19.6378C48.1448 20.0965 48.1865 20.5553 48.1865 21.014C52.6279 12.5691 59.0711 6.37616 66.4734 1.7054V1.72625ZM147.294 29.6257C139.079 13.2155 124.107 -2.48578 105.57 11.172C91.3285 21.6604 80.1729 47.2036 76.7324 78.5645C76.4405 81.2961 76.232 87.4681 75.8149 90.158C75.2728 93.6819 74.6681 92.6602 74.3345 89.449C73.8757 85.091 74.1885 78.0849 74.7307 73.3099C74.8558 72.3924 74.5221 72.0379 73.8549 72.1005C73.3544 72.1213 72.7498 72.163 72.2493 72.2047C67.5577 72.6009 63.0954 73.7061 58.8834 75.7912C54.2127 78.0849 49.9172 81.7339 46.1848 86.8009C46.1222 86.8843 46.0805 86.926 46.0388 87.0094C45.8303 92.3474 45.872 97.6854 46.0388 103.003C46.3516 102.565 46.6644 102.106 46.998 101.626C50.2508 96.9765 54.1709 93.6819 58.5081 91.5967C62.3239 89.7618 66.4109 88.6775 70.7271 88.1771C72.854 87.9269 72.7289 91.847 70.8314 92.0763C66.1398 92.6185 61.8235 93.8904 57.8825 96.0381C53.462 98.4569 49.5836 102.148 46.3516 107.256C46.3099 107.319 46.2682 107.381 46.2473 107.423C46.7895 112.761 47.4567 118.099 48.1448 123.458C48.3742 123.02 48.6453 122.561 48.9372 122.082C51.7313 117.39 55.2344 114.117 59.3004 111.906C62.9495 109.925 66.9947 108.695 71.3944 108.09C73.0625 107.861 73.3127 111.781 71.7072 112.031C67.0364 112.74 62.8452 114.158 59.1336 116.389C54.9842 118.892 51.4811 122.624 49.1249 127.774C49.0832 127.858 49.0832 127.899 49.0415 127.941C50.23 133.321 51.4394 138.68 53.1909 144.059C53.3577 143.601 53.5246 143.163 53.7122 142.683C55.5263 137.929 58.6958 134.593 62.4907 132.299C65.681 130.381 69.3092 129.046 73.3336 128.233C75.4396 127.795 75.94 131.82 74.0425 132.216C69.7888 133.133 66.0147 134.593 62.8035 136.782C59.0085 139.368 56.3812 143.142 54.7131 148.355C54.6922 148.438 54.6714 148.48 54.6505 148.543C56.7148 153.922 59.217 159.323 61.8235 164.723C61.9069 164.286 61.9695 163.806 62.0737 163.326C63.0954 158.53 65.3057 155.069 68.5377 152.734C71.165 150.836 74.2928 149.523 77.8375 148.584C80.0895 148 80.7776 152.129 79.1721 152.588C75.523 153.651 72.4787 155.173 70.0182 157.279C66.8696 159.969 64.8053 163.785 64.7219 169.061C64.7219 169.144 64.7219 169.186 64.7219 169.248C68.1832 174.419 72.7915 179.57 78.5048 184.762C78.3171 184.241 78.1503 183.761 78.0044 183.24C76.7741 178.861 77.5665 175.629 80.0478 173.314C81.7576 171.709 83.9262 170.437 86.491 169.436C88.7638 168.539 91.0575 172.772 89.2017 173.564C86.6995 174.607 84.7394 175.942 83.4466 177.61C81.57 180.07 81.1738 183.678 84.9271 188.39L86.0322 189.766C88.6804 189.975 91.2243 190.142 93.6639 190.246C111.346 190.496 123.857 187.055 135.826 173.815C149.4 158.781 159.034 129.317 159.764 95.4126C160.306 69.3481 155.468 45.89 147.336 29.6257H147.294ZM109.615 86.0502C108.927 86.0502 108.343 87.0511 108.093 88.5107C107.989 89.2197 107.968 89.9703 108.052 90.6584C108.302 92.4934 109.115 93.5777 109.949 92.9521C110.762 92.3683 111.263 90.3874 111.033 88.5107C110.846 87.0511 110.262 86.0502 109.595 86.0502H109.615ZM110.992 102.836C110.304 102.836 109.72 103.837 109.469 105.296C109.365 106.005 109.344 106.756 109.428 107.444C109.678 109.279 110.491 110.363 111.325 109.738C112.138 109.154 112.639 107.152 112.41 105.296C112.222 103.837 111.659 102.836 110.971 102.836H110.992ZM119.019 102.836C118.331 102.836 117.748 103.837 117.497 105.296C117.205 107.173 117.622 109.133 118.415 109.738C118.728 109.967 119.061 109.967 119.353 109.738C120.187 109.154 120.646 107.173 120.437 105.296C120.25 103.837 119.687 102.836 118.999 102.836H119.019ZM120.98 86.0502C120.312 86.0502 119.708 87.0511 119.457 88.5107C119.165 90.3874 119.582 92.3474 120.396 92.9521C121.188 93.536 122.106 92.4934 122.377 90.6584C122.731 88.3647 122.022 86.0502 120.98 86.0502ZM115.475 75.3742C114.787 75.3742 114.203 76.3751 113.953 77.8347C113.536 80.5454 114.62 83.1518 115.808 82.2761C116.642 81.6922 117.101 79.6905 116.893 77.8347C116.705 76.3751 116.121 75.3742 115.454 75.3742H115.475ZM115.245 88.1771C113.64 88.1771 112.305 91.1589 112.243 94.8079C112.18 98.4569 113.431 101.439 115.016 101.439C116.601 101.439 117.956 98.4778 118.019 94.8079C118.081 91.1589 116.83 88.1771 115.245 88.1771ZM139.329 83.2561C138.975 82.0676 138.266 81.7548 137.598 82.3386C135.722 83.9651 125.379 94.8913 124.462 97.0599C122.981 100.5 124.128 104.045 124.858 107.465C126.526 115.409 127.986 123.583 129.904 130.714C130.279 132.091 130.926 132.8 131.53 132.341C138.057 127.378 143.082 95.8922 139.35 83.2561H139.329ZM119.291 38.9255C118.686 39.3634 118.311 40.823 118.311 42.4703C118.352 52.1663 118.957 62.4462 119.562 72.163C119.708 74.5401 120.125 77.1883 121.501 77.7721C122.606 78.2726 134.408 73.2056 135.805 72.3716C136.514 71.9337 137.014 70.7451 137.035 69.2855C137.244 53.7511 125.838 34.2756 119.291 38.9464V38.9255ZM112.91 38.9255C106.467 34.2339 94.4563 53.6468 94.1227 69.2647C94.1018 70.7243 94.5605 71.9337 95.2486 72.3507C96.6249 73.2056 108.239 78.2517 109.365 77.7513C110.741 77.1674 111.263 74.561 111.492 72.1839C112.43 62.4462 113.369 52.1663 113.765 42.4495C113.827 40.8022 113.494 39.3426 112.91 38.9047V38.9255ZM91.3494 83.2561C87.1791 95.8713 91.1409 127.399 97.4798 132.341C98.0845 132.8 98.7517 132.091 99.1688 130.714C101.316 123.604 103.068 115.409 105.007 107.465C105.841 104.087 107.134 100.48 105.758 97.0599C104.924 94.933 94.8942 83.9234 93.1218 82.3386C92.4545 81.7548 91.7456 82.0676 91.3494 83.2561ZM103.005 144.039C106.842 156.508 121.334 156.529 125.588 144.039C125.984 142.871 125.921 141.224 125.504 139.952C123.294 133.342 120.479 127.336 117.831 120.956C117.143 119.288 116.559 117.328 115.787 116.473C115.162 115.785 114.411 115.785 113.744 116.473C112.931 117.328 112.305 119.267 111.555 120.956C108.698 127.336 105.695 133.342 103.235 139.952C102.755 141.224 102.651 142.871 103.005 144.039Z" fill="black"/>
</g>
<defs>
<clipPath id="clip0_561_1929">
<rect width="159.119" height="190" fill="white" transform="translate(0.666016 0.266602)"/>
</clipPath>
</defs>
</svg>
